# xmcd
#
# Track frame offsets: 
#        150
#        12065
#        26972
#        69309
#        94718
#        109287
#        123670
#        133977
#        143406
#        163869
#        183670
#        205183
#        210407
#        212746
#        218583
#        222180
#        224391
#        228622
#
# Disc length: 3326 seconds
#
# Revision: 0
# Processed by: cddbd v1.5.2PL0 Copyright (c) Steve Scherf et al.
# Submitted via: ExactAudioCopy v0.95a5
#
DISCID=170cfc12
DTITLE=Anna Azusa Fujita - JCD070002 Piano Serise
DYEAR=2000
DGENRE=Acid
TTITLE0=Sonata in C Major Longo
TTITLE1=Gavotte Musette
TTITLE2=1st mov Theme and Variations Andante grazioso
TTITLE3=2nd mov Menuet
TTITLE4=3rd mov March Alla Turca
TTITLE5=Traumerei
TTITLE6=G Minor Op 24-1
TTITLE7=C Major Op 24-2
TTITLE8=Liebestraume
TTITLE9=Barcarolle
TTITLE10=Clair de Lune
TTITLE11=Joc cu bata
TTITLE12=Braul
TTITLE13=Pe loc
TTITLE14=Buciumeana
TTITLE15=Poarga romanesca
TTITLE16=Maruntel
TTITLE17=Fugue et Toccata
EXTD=
EXTT0=
EXTT1=
EXTT2=
EXTT3=
EXTT4=
EXTT5=
EXTT6=
EXTT7=
EXTT8=
EXTT9=
EXTT10=
EXTT11=
EXTT12=
EXTT13=
EXTT14=
EXTT15=
EXTT16=
EXTT17=
PLAYORDER=
